<?xml version="1.0" standalone="no"?><!DOCTYPE svg PUBLIC "-//W3C//DTD SVG 1.1//EN" "http://www.w3.org/Graphics/SVG/1.1/DTD/svg11.dtd"><svg preserveAspectRatio="none" width="100%" height="100%" viewBox="0 0 1600 800" version="1.1" xmlns="http://www.w3.org/2000/svg"><style>rect.o{opacity:0}rect.o:hover{opacity:0.2}.a{fill:none;stroke:black;stroke-width:2}</style>
<polyline points="0,800 1625,800" class="a"/><polyline points="25,0 25,825" class="a"/><polyline points="0,787 1625,787" class="a" style="stroke:rgb(200,200,200)"/>
<polyline points="0,775 1625,775" class="a" style="stroke:rgb(200,200,200)"/>
<polyline points="0,763 1625,763" class="a" style="stroke:rgb(200,200,200)"/>
<polyline points="0,751 1625,751" class="a" style="stroke:rgb(200,200,200)"/>
<polyline points="0,739 1625,739" class="a" style="stroke:rgb(200,200,200)"/>
<polyline points="0,727 1625,727" class="a" style="stroke:rgb(200,200,200)"/>
<polyline points="0,715 1625,715" class="a" style="stroke:rgb(200,200,200)"/>
<polyline points="0,703 1625,703" class="a" style="stroke:rgb(200,200,200)"/>
<polyline points="0,690 1625,690" class="a" style="stroke:rgb(200,200,200)"/>
<polyline points="0,678 1625,678" class="a" style="stroke:rgb(200,200,200)"/>
<polyline points="0,666 1625,666" class="a" style="stroke:rgb(200,200,200)"/>
<polyline points="0,654 1625,654" class="a" style="stroke:rgb(200,200,200)"/>
<polyline points="0,642 1625,642" class="a" style="stroke:rgb(200,200,200)"/>
<polyline points="0,630 1625,630" class="a" style="stroke:rgb(200,200,200)"/>
<polyline points="0,618 1625,618" class="a" style="stroke:rgb(200,200,200)"/>
<polyline points="0,606 1625,606" class="a" style="stroke:rgb(200,200,200)"/>
<polyline points="0,594 1625,594" class="a" style="stroke:rgb(200,200,200)"/>
<polyline points="0,581 1625,581" class="a" style="stroke:rgb(200,200,200)"/>
<polyline points="0,569 1625,569" class="a" style="stroke:rgb(200,200,200)"/>
<polyline points="0,557 1625,557" class="a" style="stroke:rgb(200,200,200)"/>
<polyline points="0,545 1625,545" class="a" style="stroke:rgb(200,200,200)"/>
<polyline points="0,533 1625,533" class="a" style="stroke:rgb(200,200,200)"/>
<polyline points="0,521 1625,521" class="a" style="stroke:rgb(200,200,200)"/>
<polyline points="0,509 1625,509" class="a" style="stroke:rgb(200,200,200)"/>
<polyline points="0,497 1625,497" class="a" style="stroke:rgb(200,200,200)"/>
<polyline points="0,484 1625,484" class="a" style="stroke:rgb(200,200,200)"/>
<polyline points="0,472 1625,472" class="a" style="stroke:rgb(200,200,200)"/>
<polyline points="0,460 1625,460" class="a" style="stroke:rgb(200,200,200)"/>
<polyline points="0,448 1625,448" class="a" style="stroke:rgb(200,200,200)"/>
<polyline points="0,436 1625,436" class="a" style="stroke:rgb(200,200,200)"/>
<polyline points="0,424 1625,424" class="a" style="stroke:rgb(200,200,200)"/>
<polyline points="0,412 1625,412" class="a" style="stroke:rgb(200,200,200)"/>
<polyline points="0,400 1625,400" class="a" style="stroke:rgb(200,200,200)"/>
<polyline points="0,388 1625,388" class="a" style="stroke:rgb(200,200,200)"/>
<polyline points="0,375 1625,375" class="a" style="stroke:rgb(200,200,200)"/>
<polyline points="0,363 1625,363" class="a" style="stroke:rgb(200,200,200)"/>
<polyline points="0,351 1625,351" class="a" style="stroke:rgb(200,200,200)"/>
<polyline points="0,339 1625,339" class="a" style="stroke:rgb(200,200,200)"/>
<polyline points="0,327 1625,327" class="a" style="stroke:rgb(200,200,200)"/>
<polyline points="0,315 1625,315" class="a" style="stroke:rgb(200,200,200)"/>
<polyline points="0,303 1625,303" class="a" style="stroke:rgb(200,200,200)"/>
<polyline points="0,291 1625,291" class="a" style="stroke:rgb(200,200,200)"/>
<polyline points="0,279 1625,279" class="a" style="stroke:rgb(200,200,200)"/>
<polyline points="0,266 1625,266" class="a" style="stroke:rgb(200,200,200)"/>
<polyline points="0,254 1625,254" class="a" style="stroke:rgb(200,200,200)"/>
<polyline points="0,242 1625,242" class="a" style="stroke:rgb(200,200,200)"/>
<polyline points="0,230 1625,230" class="a" style="stroke:rgb(200,200,200)"/>
<polyline points="0,218 1625,218" class="a" style="stroke:rgb(200,200,200)"/>
<polyline points="0,206 1625,206" class="a" style="stroke:rgb(200,200,200)"/>
<polyline points="0,194 1625,194" class="a" style="stroke:rgb(200,200,200)"/>
<polyline points="0,182 1625,182" class="a" style="stroke:rgb(200,200,200)"/>
<polyline points="0,169 1625,169" class="a" style="stroke:rgb(200,200,200)"/>
<polyline points="0,157 1625,157" class="a" style="stroke:rgb(200,200,200)"/>
<polyline points="0,145 1625,145" class="a" style="stroke:rgb(200,200,200)"/>
<polyline points="0,133 1625,133" class="a" style="stroke:rgb(200,200,200)"/>
<polyline points="0,121 1625,121" class="a" style="stroke:rgb(200,200,200)"/>
<polyline points="0,109 1625,109" class="a" style="stroke:rgb(200,200,200)"/>
<polyline points="0,97 1625,97" class="a" style="stroke:rgb(200,200,200)"/>
<polyline points="0,85 1625,85" class="a" style="stroke:rgb(200,200,200)"/>
<polyline points="0,73 1625,73" class="a" style="stroke:rgb(200,200,200)"/>
<polyline points="0,60 1625,60" class="a" style="stroke:rgb(200,200,200)"/>
<polyline points="0,48 1625,48" class="a" style="stroke:rgb(200,200,200)"/>
<polyline points="0,36 1625,36" class="a" style="stroke:rgb(200,200,200)"/>
<polyline points="0,24 1625,24" class="a" style="stroke:rgb(200,200,200)"/>
<polyline points="0,12 1625,12" class="a" style="stroke:rgb(200,200,200)"/>
<polyline points="0,0 1625,0" class="a" style="stroke:rgb(200,200,200)"/>
<rect x="24" y="20" width="3" height="0" style="fill:rgb(0,0,255)" />
<rect x="24" y="-759" width="3" height="779" style="fill:rgb(0,255,0)" />
<rect x="13" y="0" width="25" height="800" style="" title="2010-04-23 16:03:38     6435 +6435    -0   &#x5b;bug 307651&#x5d; initial check&#x2d;in from dm Server Virgo osgi&#x2d;test&#x2d;stubs 3dbb1cd041b28fb2263a24629543142ec80b43ab" class="o" />
<rect x="49" y="19" width="3" height="0" style="fill:rgb(0,0,255)" />
<rect x="49" y="19" width="3" height="0" style="fill:rgb(0,255,0)" />
<rect x="38" y="0" width="25" height="800" style="" title="2010-05-12 17:00:02     6439    +4    -0   link in virgo&#x2d;build submodule" class="o" />
<rect x="74" y="19" width="3" height="0" style="fill:rgb(0,0,255)" />
<rect x="74" y="19" width="3" height="0" style="fill:rgb(0,255,0)" />
<rect x="63" y="0" width="25" height="800" style="" title="2010-05-13 12:47:11     6439    +0    -0   &#x5b;RIPPLOR&#x5d; Updated versions" class="o" />
<rect x="99" y="19" width="3" height="0" style="fill:rgb(0,0,255)" />
<rect x="99" y="19" width="3" height="0" style="fill:rgb(0,255,0)" />
<rect x="88" y="0" width="25" height="800" style="" title="2010-06-13 16:31:44     6439    +0    -0   &#x5b;RIPPLOR&#x5d; Updated versions" class="o" />
<rect x="124" y="19" width="3" height="0" style="fill:rgb(0,0,255)" />
<rect x="124" y="19" width="3" height="0" style="fill:rgb(0,255,0)" />
<rect x="113" y="0" width="25" height="800" style="" title="2010-06-15 15:18:22     6439    +0    -0   &#x5b;RIPPLOR&#x5d; Updated versions" class="o" />
<rect x="149" y="19" width="3" height="0" style="fill:rgb(0,0,255)" />
<rect x="149" y="19" width="3" height="0" style="fill:rgb(0,255,0)" />
<rect x="138" y="0" width="25" height="800" style="" title="2010-06-15 15:18:22     6439    +1    -1   &#x5b;RELEASELOR&#x5d; Updated properties" class="o" />
<rect x="174" y="19" width="3" height="0" style="fill:rgb(0,0,255)" />
<rect x="174" y="19" width="3" height="0" style="fill:rgb(0,255,0)" />
<rect x="163" y="0" width="25" height="800" style="" title="2010-06-16 13:21:38     6439    +0    -0   &#x5b;RELEASELOR&#x5d; Updated versions" class="o" />
<rect x="199" y="19" width="3" height="0" style="fill:rgb(0,0,255)" />
<rect x="199" y="19" width="3" height="0" style="fill:rgb(0,255,0)" />
<rect x="188" y="0" width="25" height="800" style="" title="2010-06-16 13:21:38     6439    +0    -0   &#x5b;RELEASELOR&#x5d; Updated properties" class="o" />
<rect x="224" y="19" width="3" height="0" style="fill:rgb(0,0,255)" />
<rect x="224" y="19" width="3" height="0" style="fill:rgb(0,255,0)" />
<rect x="213" y="0" width="25" height="800" style="" title="2010-06-23 14:27:34     6439    +0    -0   &#x5b;RELEASELOR&#x5d; Updated versions" class="o" />
<rect x="249" y="19" width="3" height="0" style="fill:rgb(0,0,255)" />
<rect x="249" y="19" width="3" height="0" style="fill:rgb(0,255,0)" />
<rect x="238" y="0" width="25" height="800" style="" title="2010-06-24 16:30:21     6439    +1    -1   &#x5b;UPDATE BUILDLOR&#x5d; Updated Virgo Build to &#x27;1&#x2e;6&#x27;" class="o" />
<rect x="274" y="19" width="3" height="0" style="fill:rgb(0,0,255)" />
<rect x="274" y="19" width="3" height="0" style="fill:rgb(0,255,0)" />
<rect x="263" y="0" width="25" height="800" style="" title="2010-06-24 16:30:21     6439    +1    -1   &#x5b;RIPPLOR&#x5d; Updated versions" class="o" />
<rect x="299" y="19" width="3" height="0" style="fill:rgb(0,0,255)" />
<rect x="299" y="19" width="3" height="0" style="fill:rgb(0,255,0)" />
<rect x="288" y="0" width="25" height="800" style="" title="2010-06-24 17:27:34     6439    +1    -1   &#x5b;UPDATE BUILDLOR&#x5d; Updated Virgo Build to &#x27;1&#x2e;8&#x27;" class="o" />
<rect x="324" y="19" width="3" height="0" style="fill:rgb(0,0,255)" />
<rect x="324" y="19" width="3" height="0" style="fill:rgb(0,255,0)" />
<rect x="313" y="0" width="25" height="800" style="" title="2010-06-25 11:02:30     6439    +0    -0   Merge branch &#x27;2&#x2e;1&#x2e;0&#x2e;D&#x2d;20100624153020&#x27;" class="o" />
<rect x="349" y="19" width="3" height="0" style="fill:rgb(0,0,255)" />
<rect x="349" y="19" width="3" height="0" style="fill:rgb(0,255,0)" />
<rect x="338" y="0" width="25" height="800" style="" title="2010-06-25 14:17:01     6439    +1    -1   &#x5b;UPDATE BUILDLOR&#x5d; Updated Virgo Build to &#x27;1&#x2e;10&#x27;" class="o" />
<rect x="374" y="19" width="3" height="0" style="fill:rgb(0,0,255)" />
<rect x="374" y="19" width="3" height="0" style="fill:rgb(0,255,0)" />
<rect x="363" y="0" width="25" height="800" style="" title="2010-06-28 12:53:07     6439    +1    -1   &#x5b;RIPPLOR&#x5d; Updated versions" class="o" />
<rect x="399" y="19" width="3" height="0" style="fill:rgb(0,0,255)" />
<rect x="399" y="19" width="3" height="0" style="fill:rgb(0,255,0)" />
<rect x="388" y="0" width="25" height="800" style="" title="2010-06-28 14:46:06     6439    +1    -1   &#x5b;UPDATE BUILDLOR&#x5d; Updated Virgo Build to &#x27;1&#x2e;14&#x27;" class="o" />
<rect x="424" y="19" width="3" height="0" style="fill:rgb(0,0,255)" />
<rect x="424" y="19" width="3" height="0" style="fill:rgb(0,255,0)" />
<rect x="413" y="0" width="25" height="800" style="" title="2010-06-28 18:04:42     6439    +1    -1   &#x5b;UPDATE BUILDLOR&#x5d; Updated Virgo Build to &#x27;1&#x2e;15&#x27;" class="o" />
<rect x="449" y="19" width="3" height="0" style="fill:rgb(0,0,255)" />
<rect x="449" y="19" width="3" height="0" style="fill:rgb(0,255,0)" />
<rect x="438" y="0" width="25" height="800" style="" title="2010-07-01 12:49:36     6439    +1    -1   &#x5b;UPDATE BUILDLOR&#x5d; Updated Virgo Build to &#x27;1&#x2e;16&#x27;" class="o" />
<rect x="474" y="19" width="3" height="0" style="fill:rgb(0,0,255)" />
<rect x="474" y="19" width="3" height="0" style="fill:rgb(0,255,0)" />
<rect x="463" y="0" width="25" height="800" style="" title="2010-07-01 14:18:54     6439    +2    -2   add &#x27;incubation&#x27; to all Bundle&#x2d;Name headers" class="o" />
<rect x="499" y="19" width="3" height="0" style="fill:rgb(0,0,255)" />
<rect x="499" y="19" width="3" height="0" style="fill:rgb(0,255,0)" />
<rect x="488" y="0" width="25" height="800" style="" title="2010-07-02 11:00:50     6439    +0    -0   &#x5b;UPDATE BUILDLOR&#x5d; Updated Virgo Build to &#x27;1&#x2e;16&#x27;" class="o" />
<rect x="524" y="19" width="3" height="0" style="fill:rgb(0,0,255)" />
<rect x="524" y="19" width="3" height="0" style="fill:rgb(0,255,0)" />
<rect x="513" y="0" width="25" height="800" style="" title="2010-07-02 12:23:50     6439    +1    -1   &#x5b;UPDATE BUILDLOR&#x5d; Updated Virgo Build to &#x27;1&#x2e;19&#x27;" class="o" />
<rect x="549" y="19" width="3" height="0" style="fill:rgb(0,0,255)" />
<rect x="549" y="19" width="3" height="0" style="fill:rgb(0,255,0)" />
<rect x="538" y="0" width="25" height="800" style="" title="2010-07-02 12:23:51     6439    +0    -0   &#x5b;RIPPLOR&#x5d; Updated versions" class="o" />
<rect x="574" y="19" width="3" height="0" style="fill:rgb(0,0,255)" />
<rect x="574" y="19" width="3" height="0" style="fill:rgb(0,255,0)" />
<rect x="563" y="0" width="25" height="800" style="" title="2010-07-07 13:12:19     6439    +0    -0   &#x5b;UPDATE BUILDLOR&#x5d; Updated Virgo Build to &#x27;1&#x2e;19&#x27;" class="o" />
<rect x="599" y="19" width="3" height="0" style="fill:rgb(0,0,255)" />
<rect x="599" y="19" width="3" height="0" style="fill:rgb(0,255,0)" />
<rect x="588" y="0" width="25" height="800" style="" title="2010-07-07 13:12:19     6439    +0    -0   &#x5b;RELEASELOR&#x5d; Updated properties" class="o" />
<rect x="624" y="19" width="3" height="0" style="fill:rgb(0,0,255)" />
<rect x="624" y="19" width="3" height="0" style="fill:rgb(0,255,0)" />
<rect x="613" y="0" width="25" height="800" style="" title="2010-07-13 17:45:31     6439    +0    -0   &#x5b;RELEASELOR&#x5d; Updated versions" class="o" />
<rect x="649" y="19" width="3" height="0" style="fill:rgb(0,0,255)" />
<rect x="649" y="19" width="3" height="0" style="fill:rgb(0,255,0)" />
<rect x="638" y="0" width="25" height="800" style="" title="2010-07-27 18:52:07     6439    +1    -1   &#x5b;UPDATE BUILDLOR&#x5d; Updated Virgo Build to &#x27;1&#x2e;23&#x27;" class="o" />
<rect x="674" y="19" width="3" height="0" style="fill:rgb(0,0,255)" />
<rect x="674" y="19" width="3" height="0" style="fill:rgb(0,255,0)" />
<rect x="663" y="0" width="25" height="800" style="" title="2010-07-29 16:24:26     6439    +0    -0   &#x5b;RIPPLOR&#x5d; Updated versions" class="o" />
<rect x="699" y="19" width="3" height="0" style="fill:rgb(0,0,255)" />
<rect x="699" y="19" width="3" height="0" style="fill:rgb(0,255,0)" />
<rect x="688" y="0" width="25" height="800" style="" title="2010-07-29 16:43:49     6439    +1    -1   Updating to the latest of virgo build for testing" class="o" />
<rect x="724" y="19" width="3" height="0" style="fill:rgb(0,0,255)" />
<rect x="724" y="19" width="3" height="0" style="fill:rgb(0,255,0)" />
<rect x="713" y="0" width="25" height="800" style="" title="2010-08-05 12:13:12     6439    +1    -1   &#x5b;UPDATE BUILDLOR&#x5d; Updated Virgo Build to &#x27;1&#x2e;24&#x27;" class="o" />
<rect x="749" y="19" width="3" height="0" style="fill:rgb(0,0,255)" />
<rect x="749" y="19" width="3" height="0" style="fill:rgb(0,255,0)" />
<rect x="738" y="0" width="25" height="800" style="" title="2010-08-06 10:37:50     6439    +0    -0   &#x5b;RIPPLOR&#x5d; Updated versions" class="o" />
<rect x="774" y="19" width="3" height="0" style="fill:rgb(0,0,255)" />
<rect x="774" y="19" width="3" height="0" style="fill:rgb(0,255,0)" />
<rect x="763" y="0" width="25" height="800" style="" title="2010-08-06 10:37:50     6439    +0    -0   &#x5b;RELEASELOR&#x5d; Updated properties" class="o" />
<rect x="799" y="19" width="3" height="0" style="fill:rgb(0,0,255)" />
<rect x="799" y="19" width="3" height="0" style="fill:rgb(0,255,0)" />
<rect x="788" y="0" width="25" height="800" style="" title="2010-09-02 15:03:39     6439    +0    -0   &#x5b;RELEASELOR&#x5d; Updated versions" class="o" />
<rect x="824" y="19" width="3" height="0" style="fill:rgb(0,0,255)" />
<rect x="824" y="19" width="3" height="0" style="fill:rgb(0,255,0)" />
<rect x="813" y="0" width="25" height="800" style="" title="2010-09-02 15:03:39     6439    +0    -0   &#x5b;RELEASELOR&#x5d; Updated properties" class="o" />
<rect x="849" y="19" width="3" height="0" style="fill:rgb(0,0,255)" />
<rect x="849" y="19" width="3" height="0" style="fill:rgb(0,255,0)" />
<rect x="838" y="0" width="25" height="800" style="" title="2010-09-14 15:39:16     6439    +0    -0   &#x5b;RELEASELOR&#x5d; Updated versions" class="o" />
<rect x="874" y="19" width="3" height="0" style="fill:rgb(0,0,255)" />
<rect x="874" y="19" width="3" height="0" style="fill:rgb(0,255,0)" />
<rect x="863" y="0" width="25" height="800" style="" title="2010-09-14 16:56:33     6439    +1    -1   &#x5b;UPDATE BUILDLOR&#x5d; Updated Virgo Build to &#x27;1&#x2e;25&#x27;" class="o" />
<rect x="899" y="19" width="3" height="0" style="fill:rgb(0,0,255)" />
<rect x="899" y="19" width="3" height="0" style="fill:rgb(0,255,0)" />
<rect x="888" y="0" width="25" height="800" style="" title="2010-09-14 17:26:20     6439    +1    -1   &#x5b;UPDATE BUILDLOR&#x5d; Updated Virgo Build to &#x27;1&#x2e;26&#x27;" class="o" />
<rect x="924" y="19" width="3" height="0" style="fill:rgb(0,0,255)" />
<rect x="924" y="19" width="3" height="0" style="fill:rgb(0,255,0)" />
<rect x="913" y="0" width="25" height="800" style="" title="2010-09-22 15:18:07     6439    +6    -6   Remove strange chars from javaDoc&#x2e;" class="o" />
<rect x="949" y="19" width="3" height="0" style="fill:rgb(0,0,255)" />
<rect x="949" y="19" width="3" height="0" style="fill:rgb(0,255,0)" />
<rect x="938" y="0" width="25" height="800" style="" title="2010-09-23 13:28:37     6439    +1    -1   &#x5b;UPDATE BUILDLOR&#x5d; Updated Virgo Build to &#x27;1&#x2e;28&#x27;" class="o" />
<rect x="974" y="19" width="3" height="0" style="fill:rgb(0,0,255)" />
<rect x="974" y="19" width="3" height="0" style="fill:rgb(0,255,0)" />
<rect x="963" y="0" width="25" height="800" style="" title="2010-09-23 14:54:57     6439    +1    -1   &#x5b;UPDATE BUILDLOR&#x5d; Updated Virgo Build to &#x27;1&#x2e;29&#x27;" class="o" />
<rect x="999" y="19" width="3" height="0" style="fill:rgb(0,0,255)" />
<rect x="999" y="19" width="3" height="0" style="fill:rgb(0,255,0)" />
<rect x="988" y="0" width="25" height="800" style="" title="2010-09-28 14:53:30     6439    +0    -0   &#x5b;RIPPLOR&#x5d; Updated versions" class="o" />
<rect x="1024" y="19" width="3" height="0" style="fill:rgb(0,0,255)" />
<rect x="1024" y="19" width="3" height="0" style="fill:rgb(0,255,0)" />
<rect x="1013" y="0" width="25" height="800" style="" title="2010-10-05 11:43:51     6439    +1    -1   325728 Updating repo version after branching for 2&#x2e;1&#x2e;x" class="o" />
<rect x="1049" y="19" width="3" height="0" style="fill:rgb(0,0,255)" />
<rect x="1049" y="19" width="3" height="0" style="fill:rgb(0,255,0)" />
<rect x="1038" y="0" width="25" height="800" style="" title="2010-10-15 11:35:24     6439    +0    -0   &#x5b;RIPPLOR&#x5d; Updated versions" class="o" />
<rect x="1074" y="19" width="3" height="0" style="fill:rgb(0,0,255)" />
<rect x="1074" y="19" width="3" height="0" style="fill:rgb(0,255,0)" />
<rect x="1063" y="0" width="25" height="800" style="" title="2010-10-15 14:21:30     6439    +1    -1   &#x5b;UPDATE BUILDLOR&#x5d; Updated Virgo Build to &#x27;1&#x2e;30&#x27;" class="o" />
<rect x="1099" y="19" width="3" height="0" style="fill:rgb(0,0,255)" />
<rect x="1099" y="19" width="3" height="0" style="fill:rgb(0,255,0)" />
<rect x="1088" y="0" width="25" height="800" style="" title="2010-10-18 14:57:40     6439    +1    -1   &#x5b;UPDATE BUILDLOR&#x5d; Updated Virgo Build to &#x27;1&#x2e;31&#x27;" class="o" />
<rect x="1124" y="19" width="3" height="0" style="fill:rgb(0,0,255)" />
<rect x="1124" y="19" width="3" height="0" style="fill:rgb(0,255,0)" />
<rect x="1113" y="0" width="25" height="800" style="" title="2010-10-19 17:21:20     6439    +1    -1   &#x5b;UPDATE BUILDLOR&#x5d; Updated Virgo Build to &#x27;1&#x2e;32&#x27;" class="o" />
<rect x="1149" y="19" width="3" height="0" style="fill:rgb(0,0,255)" />
<rect x="1149" y="19" width="3" height="0" style="fill:rgb(0,255,0)" />
<rect x="1138" y="0" width="25" height="800" style="" title="2010-10-20 18:10:27     6439    +1    -1   &#x5b;UPDATE BUILDLOR&#x5d; Updated Virgo Build to &#x27;1&#x2e;33&#x27;" class="o" />
<rect x="1174" y="19" width="3" height="0" style="fill:rgb(0,0,255)" />
<rect x="1174" y="19" width="3" height="0" style="fill:rgb(0,255,0)" />
<rect x="1163" y="0" width="25" height="800" style="" title="2010-10-21 12:25:20     6439    +1    -1   &#x5b;UPDATE BUILDLOR&#x5d; Updated Virgo Build to &#x27;1&#x2e;34&#x27;" class="o" />
<rect x="1199" y="19" width="3" height="0" style="fill:rgb(0,0,255)" />
<rect x="1199" y="19" width="3" height="0" style="fill:rgb(0,255,0)" />
<rect x="1188" y="0" width="25" height="800" style="" title="2010-10-22 13:17:48     6439    +1    -1   &#x5b;UPDATE BUILDLOR&#x5d; Updated Virgo Build to &#x27;1&#x2e;35&#x27;" class="o" />
<rect x="1224" y="19" width="3" height="0" style="fill:rgb(0,0,255)" />
<rect x="1224" y="19" width="3" height="0" style="fill:rgb(0,255,0)" />
<rect x="1213" y="0" width="25" height="800" style="" title="2010-10-21 14:32:22     6439    +1    -1   &#x5b;UPDATE BUILDLOR&#x5d; Updated Virgo Build to &#x27;1&#x2e;36&#x27;" class="o" />
<rect x="1249" y="19" width="3" height="0" style="fill:rgb(0,0,255)" />
<rect x="1249" y="19" width="3" height="0" style="fill:rgb(0,255,0)" />
<rect x="1238" y="0" width="25" height="800" style="" title="2010-11-02 14:45:03     6439    +2    -2   remove &#x28;incubation&#x29; from bundle names" class="o" />
<rect x="1274" y="19" width="3" height="0" style="fill:rgb(0,0,255)" />
<rect x="1274" y="19" width="3" height="0" style="fill:rgb(0,255,0)" />
<rect x="1263" y="0" width="25" height="800" style="" title="2010-11-02 14:45:03     6439    +0    -0   &#x5b;RELEASELOR&#x5d; Updated properties" class="o" />
<rect x="1299" y="19" width="3" height="0" style="fill:rgb(0,0,255)" />
<rect x="1299" y="19" width="3" height="0" style="fill:rgb(0,255,0)" />
<rect x="1288" y="0" width="25" height="800" style="" title="2010-11-08 12:04:51     6439    +0    -0   &#x5b;RELEASELOR&#x5d; Updated versions" class="o" />
<rect x="1324" y="19" width="3" height="0" style="fill:rgb(0,0,255)" />
<rect x="1324" y="19" width="3" height="0" style="fill:rgb(0,255,0)" />
<rect x="1313" y="0" width="25" height="800" style="" title="2010-11-08 15:00:34     6439    +1    -1   &#x5b;UPDATE BUILDLOR&#x5d; Updated Virgo Build to &#x27;1&#x2e;37&#x27;" class="o" />
<rect x="1349" y="19" width="3" height="0" style="fill:rgb(0,0,255)" />
<rect x="1349" y="19" width="3" height="0" style="fill:rgb(0,255,0)" />
<rect x="1338" y="0" width="25" height="800" style="" title="2010-11-24 10:54:51     6439    +1    -1   &#x5b;UPDATE BUILDLOR&#x5d; Updated Virgo Build to &#x27;1&#x2e;38&#x27;" class="o" />
<rect x="1374" y="19" width="3" height="0" style="fill:rgb(0,0,255)" />
<rect x="1374" y="19" width="3" height="0" style="fill:rgb(0,255,0)" />
<rect x="1363" y="0" width="25" height="800" style="" title="2010-11-24 11:10:26     6439    +2    -2   325571 updating source and target versions to 1&#x2e;6" class="o" />
<rect x="1399" y="19" width="3" height="0" style="fill:rgb(0,0,255)" />
<rect x="1399" y="19" width="3" height="0" style="fill:rgb(0,255,0)" />
<rect x="1388" y="0" width="25" height="800" style="" title="2010-11-24 14:48:27     6439    +1    -1   Updating virgo build version after testing" class="o" />
<rect x="1424" y="20" width="3" height="0" style="fill:rgb(0,0,255)" />
<rect x="1424" y="20" width="3" height="0" style="fill:rgb(0,255,0)" />
<rect x="1413" y="0" width="25" height="800" style="" title="2010-11-24 15:31:39     6437    +0    -2   Removing unnecessary source and target versions from build&#x2e;properties" class="o" />
<rect x="1449" y="20" width="3" height="0" style="fill:rgb(0,0,255)" />
<rect x="1449" y="20" width="3" height="0" style="fill:rgb(0,255,0)" />
<rect x="1438" y="0" width="25" height="800" style="" title="2010-11-25 08:41:09     6437    +0    -0   &#x5b;UPDATE BUILDLOR&#x5d; Updated Virgo Build to &#x27;1&#x2e;39&#x27;" class="o" />
<rect x="1474" y="5" width="3" height="8" style="fill:rgb(0,0,255)" />
<rect x="1474" y="-16" width="3" height="22" style="fill:rgb(0,255,0)" />
<rect x="1463" y="0" width="25" height="800" style="" title="2010-11-25 09:20:58     6556  +187   -68   bug 330236&#x3a; basic migration to Equinox 3&#x2e;7&#x2e; Some warnings still present&#x2e;" class="o" />
<rect x="1499" y="0" width="3" height="0" style="fill:rgb(0,0,255)" />
<rect x="1499" y="-6" width="3" height="6" style="fill:rgb(0,255,0)" />
<rect x="1488" y="0" width="25" height="800" style="" title="2010-11-26 09:39:38     6603   +55    -8   bug 330236&#x3a; implement and test new BundleContext methods" class="o" />
<rect x="1524" y="0" width="3" height="0" style="fill:rgb(0,0,255)" />
<rect x="1524" y="0" width="3" height="0" style="fill:rgb(0,255,0)" />
<rect x="1513" y="0" width="25" height="800" style="" title="2010-11-26 11:56:41     6603    +0    -0   &#x5b;RIPPLOR&#x5d; Updated versions" class="o" />
<rect x="1549" y="0" width="3" height="0" style="fill:rgb(0,0,255)" />
<rect x="1549" y="0" width="3" height="0" style="fill:rgb(0,255,0)" />
<rect x="1538" y="0" width="25" height="800" style="" title="2010-11-26 15:04:37     6603    +0    -0   &#x5b;RIPPLOR&#x5d; Updated versions" class="o" />
<rect x="1574" y="4" width="3" height="19" style="fill:rgb(0,0,255)" />
<rect x="1574" y="-10" width="3" height="15" style="fill:rgb(0,255,0)" />
<rect x="1563" y="0" width="25" height="800" style="" title="2010-11-26 15:05:09     6563  +125  -165   bug 330236&#x3a; fix warnings" class="o" />
<rect x="1599" y="4" width="3" height="0" style="fill:rgb(0,0,255)" />
<rect x="1599" y="4" width="3" height="0" style="fill:rgb(0,255,0)" />
<rect x="1588" y="0" width="25" height="800" style="" title="2010-11-26 15:05:09     6563    +0    -0   Merge branch &#x27;master&#x27; of ssh&#x3a;&#x2f;&#x2f;git&#x2e;eclipse&#x2e;org&#x2f;gitroot&#x2f;virgo&#x2f;org&#x2e;eclipse&#x2e;virgo&#x2e;osgi&#x2d;test&#x2d;stubs" class="o" />
<polyline points="25,20 50,19 75,19 100,19 125,19 150,19 175,19 200,19 225,19 250,19 275,19 300,19 325,19 350,19 375,19 400,19 425,19 450,19 475,19 500,19 525,19 550,19 575,19 600,19 625,19 650,19 675,19 700,19 725,19 750,19 775,19 800,19 825,19 850,19 875,19 900,19 925,19 950,19 975,19 1000,19 1025,19 1050,19 1075,19 1100,19 1125,19 1150,19 1175,19 1200,19 1225,19 1250,19 1275,19 1300,19 1325,19 1350,19 1375,19 1400,19 1425,20 1450,20 1475,5 1500,0 1525,0 1550,0 1575,4 1600,4" class="a" style="stroke:red"/></svg>
